HIERARCHY
ROOT Hips
{
	OFFSET	0.00	0.00	0.00
	CHANNELS 6 Xposition Yposition Zposition Zrotation Xrotation Yrotation
	JOINT LeftUpLeg
	{
		OFFSET	 0.126116	-0.065224	 0.014019
		CHANNELS 3 Zrotation Xrotation Yrotation
		JOINT LeftLeg
		{
			OFFSET	 0.000000	 0.569914	 0.000000
			CHANNELS 3 Zrotation Xrotation Yrotation
			JOINT LeftFoot
			{
				OFFSET	 0.000000	 0.544423	 0.000000
				CHANNELS 3 Zrotation Xrotation Yrotation
				JOINT LeftToeBase
				{
					OFFSET	 0.000000	 0.207117	 0.000000
					CHANNELS 3 Zrotation Xrotation Yrotation
					End Site
					{
						OFFSET	 0.000000	 0.207117	 0.000000
					}
				}
			}
		}
	}
	JOINT RightUpLeg
	{
		OFFSET	-0.124023	-0.065224	 0.008373
		CHANNELS 3 Zrotation Xrotation Yrotation
		JOINT RightLeg
		{
			OFFSET	 0.000000	 0.570047	 0.000000
			CHANNELS 3 Zrotation Xrotation Yrotation
			JOINT RightFoot
			{
				OFFSET	 0.000000	 0.544354	 0.000000
				CHANNELS 3 Zrotation Xrotation Yrotation
				JOINT RightToeBase
				{
					OFFSET	 0.000000	 0.207540	 0.000000
					CHANNELS 3 Zrotation Xrotation Yrotation
					End Site
					{
						OFFSET	 0.000000	 0.207540	 0.000000
					}
				}
			}
		}
	}
	JOINT Spine
	{
		OFFSET	 0.000184	 0.117403	 0.007763
		CHANNELS 3 Zrotation Xrotation Yrotation
		JOINT Spine1
		{
			OFFSET	 0.000000	 0.137269	 0.000000
			CHANNELS 3 Zrotation Xrotation Yrotation
			JOINT Spine2
			{
				OFFSET	 0.000000	 0.156879	 0.000000
				CHANNELS 3 Zrotation Xrotation Yrotation
				JOINT LeftShoulder
				{
					OFFSET	 0.080501	 0.160143	 0.002496
					CHANNELS 3 Zrotation Xrotation Yrotation
					JOINT LeftArm
					{
						OFFSET	 0.000000	 0.164363	 0.000000
						CHANNELS 3 Zrotation Xrotation Yrotation
						JOINT LeftForeArm
						{
							OFFSET	 0.000000	 0.364576	 0.000000
							CHANNELS 3 Zrotation Xrotation Yrotation
							JOINT LeftHand
							{
								OFFSET	 0.000000	 0.360812	 0.000000
								CHANNELS 3 Zrotation Xrotation Yrotation
								JOINT LeftHandIndex1
								{
									OFFSET	 0.000000	 0.086006	 0.000000
									CHANNELS 3 Zrotation Xrotation Yrotation
									JOINT LeftHandIndex2
									{
										OFFSET	 0.000000	 0.047237	 0.000000
										CHANNELS 3 Zrotation Xrotation Yrotation
										JOINT LeftHandIndex3
										{
											OFFSET	-0.004284	 0.038165	 0.000551
											CHANNELS 3 Zrotation Xrotation Yrotation
											End Site
											{
												OFFSET	-0.004284	 0.038165	 0.000551
											}
										}
									}
								}
							}
						}
					}
				}
				JOINT Neck
				{
					OFFSET	 0.000000	 0.176489	 0.000000
					CHANNELS 3 Zrotation Xrotation Yrotation
					JOINT Head
					{
						OFFSET	 0.000000	 0.077941	 0.001747
						CHANNELS 3 Zrotation Xrotation Yrotation
						End Site
						{
							OFFSET	 0.000000	 0.077941	 0.001747
						}
					}
				}
				JOINT RightShoulder
				{
					OFFSET	-0.080363	 0.159706	-0.000306
					CHANNELS 3 Zrotation Xrotation Yrotation
					JOINT RightArm
					{
						OFFSET	 0.000000	 0.164196	 0.000000
						CHANNELS 3 Zrotation Xrotation Yrotation
						JOINT RightForeArm
						{
							OFFSET	 0.000000	 0.365611	 0.000000
							CHANNELS 3 Zrotation Xrotation Yrotation
							JOINT RightHand
							{
								OFFSET	 0.000000	 0.360648	 0.000000
								CHANNELS 3 Zrotation Xrotation Yrotation
								JOINT RightHandIndex1
								{
									OFFSET	 0.000000	 0.069977	 0.000000
									CHANNELS 3 Zrotation Xrotation Yrotation
									JOINT RightHandIndex2
									{
										OFFSET	 0.000000	 0.052305	 0.000000
										CHANNELS 3 Zrotation Xrotation Yrotation
										JOINT RightHandIndex3
										{
											OFFSET	 0.009002	 0.042196	 0.000782
											CHANNELS 3 Zrotation Xrotation Yrotation
											End Site
											{
												OFFSET	 0.009002	 0.042196	 0.000782
											}
										}
									}
								}
							}
						}
					}
				}
			}
		}
	}
}
MOTION
Frames:    9
Frame Time: 0.03333334
 0.018616	 1.297576	 0.001202	-0.350115	 2.554781	-179.397600	-175.322700	 4.705527	-27.435270	 3.202293	-15.799000	 4.943968	-0.998514	 63.232640	 1.536811	 1.331492	 28.938720	-2.729976	 175.450000	 5.749826	 34.682240	-5.587918	-17.809150	-7.180226	 0.194451	 65.961600	-0.175693	-1.291976	 28.413970	 2.854797	-2.206708	 3.327626	 19.495980	-1.391536	 3.706213	-0.003204	-1.245008	-1.208082	-0.297544	-113.441400	 5.235164	 92.965090	 63.334720	 31.008710	-9.142168	 18.579580	-0.255470	 12.925280	-31.122880	-1.590861	-7.128636	-6.580301	 5.266122	 0.000000	 0.000000	 0.000000	 0.000000	 0.000000	 0.000000	 0.000000	 4.810481	-0.219210	-0.581868	 5.055145	 0.987817	 0.864654	 114.236800	-4.532837	-88.262800	-31.253730	 37.290000	-30.677160	-107.723600	-1.621309	-15.754930	-15.750590	-16.102270	-22.381410	-0.764982	 21.664550	 0.857619	 12.358730	 20.156320	-4.508778	-8.453476	 8.863036	-0.258291
 0.019656	 1.297302	 0.002808	-0.477205	 2.597199	-178.994300	-175.460100	 4.897451	-26.992030	 3.199170	-15.784320	 5.350057	-0.135119	 63.183620	 0.622869	 1.331492	 28.938720	-2.729976	 175.280600	 5.873382	 35.203350	-5.680612	-18.084580	-7.074933	 0.394413	 66.099010	-0.469481	-1.291133	 28.404850	 2.890423	-1.921472	 3.579467	 14.559760	-1.428079	 3.811463	-0.062748	-1.321531	-1.158556	-0.482364	-113.442000	 5.142797	 92.934020	 64.851860	 30.489530	-10.045200	 20.657770	-0.262021	 14.758920	-31.699340	-5.220140	-5.707983	-6.580301	 5.266122	 0.000000	 0.000000	 0.000000	 0.000000	 0.000000	 0.000000	 0.000000	 4.633632	-0.196900	-0.653624	 5.028901	 0.822872	 0.639723	 114.228200	-4.472792	-88.300660	-24.405640	 39.508970	-34.283540	-97.036510	-1.639025	-17.148600	-18.092860	-16.273410	-15.770090	-0.826198	 23.220230	 0.880987	 12.453550	 21.676360	-4.866717	-8.463344	 9.620728	-0.306059
 0.020575	 1.297035	 0.004368	-0.531007	 2.694450	-179.042100	-175.464300	 4.926310	-27.017530	 3.205747	-15.815090	 5.430264	 0.003163	 63.140570	 0.457088	 1.331492	 28.938720	-2.729976	 175.233100	 5.992739	 35.201070	-5.761507	-18.324190	-7.316814	-0.209687	 66.211890	 0.105929	-1.291030	 28.404750	 2.914006	-1.586289	 3.821721	 9.304191	-1.450107	 3.863430	-0.085185	-1.351226	-1.059273	-0.614008	-113.442900	 5.086050	 92.921690	 64.484670	 31.056080	-9.459098	 22.566470	-0.265022	 16.491290	-31.140490	-8.810119	-4.482741	-6.580301	 5.266122	 0.000000	 0.000000	 0.000000	 0.000000	 0.000000	 0.000000	 0.000000	 4.456481	-0.175199	-0.706623	 4.963921	 0.763470	 0.496601	 114.220900	-4.422392	-88.333050	-21.736990	 41.073860	-35.534160	-88.403590	-1.587580	-18.512250	-16.697820	-18.289190	-10.273110	-0.840585	 23.580740	 0.886700	 12.477130	 22.028520	-4.950588	-8.465625	 9.802903	-0.317542
 0.021323	 1.296705	 0.005911	-0.493681	 2.863435	-179.667800	-175.294800	 4.780764	-27.645820	 3.232593	-15.940740	 5.096200	-0.777234	 63.111520	 1.243329	 1.331492	 28.938720	-2.729976	 175.339300	 6.142350	 34.529770	-5.846640	-18.575630	-8.003020	-1.850965	 66.306200	 1.794906	-1.291879	 28.416160	 2.922370	-1.202619	 4.047286	 3.782289	-1.485835	 3.872962	-0.053760	-1.306114	-0.906439	-0.679708	-113.444000	 5.074399	 92.933210	 61.503120	 33.148780	-6.827691	 24.320600	-0.265655	 18.119500	-29.088160	-12.575400	-3.522587	-6.580301	 5.266122	 0.000000	 0.000000	 0.000000	 0.000000	 0.000000	 0.000000	 0.000000	 4.277657	-0.154272	-0.736057	 4.849922	 0.838448	 0.457138	 114.215300	-4.383964	-88.358660	-19.389400	 40.145630	-37.113710	-85.135000	-1.517359	-19.982620	-11.991410	-23.181930	-6.456589	-0.794437	 22.417470	 0.868670	 12.403240	 20.892060	-4.681213	-8.458612	 9.251135	-0.282769
 0.021795	 1.296369	 0.007433	-0.447234	 3.030663	 179.709300	-175.124000	 4.619047	-28.268670	 3.264488	-16.089740	 4.767289	-1.551616	 63.118220	 2.019917	 1.331492	 28.938720	-2.729976	 175.433000	 6.292534	 33.860480	-5.935887	-18.838410	-8.678270	-3.446330	 66.382100	 3.455384	-1.292724	 28.427500	 2.930680	-0.783637	 4.233024	-1.909394	-1.505234	 3.809775	-0.154083	-1.264630	-0.719121	-0.745199	-113.445100	 5.062840	 92.944660	 56.759770	 36.105320	-3.002218	 25.854250	-0.263993	 19.582000	-26.027160	-16.903130	-3.259233	-6.580301	 5.266122	 0.000000	 0.000000	 0.000000	 0.000000	 0.000000	 0.000000	 0.000000	 4.100043	-0.133396	-0.765229	 4.736757	 0.913017	 0.417985	 114.209700	-4.345796	-88.384100	-16.303310	 37.594880	-39.065350	-85.817480	-1.463539	-21.444730	-3.812226	-26.231790	-2.257941	-0.749350	 21.261770	 0.851898	 12.335990	 19.762710	-4.417090	-8.451320	 8.703050	-0.248212
 0.022090	 1.296096	 0.008907	-0.392605	 3.201494	 179.072400	-174.958600	 4.426224	-28.903260	 3.292241	-16.219220	 4.431321	-2.332411	 63.125430	 2.808203	 1.331492	 28.938720	-2.729976	 175.534100	 6.407002	 33.173700	-6.010024	-19.055990	-9.354917	-5.048800	 66.421020	 5.131652	-1.293590	 28.439080	 2.939173	-0.330706	 4.376433	-7.706333	-1.476071	 3.711259	-0.281852	-1.244444	-0.512250	-0.812512	-113.446300	 5.050995	 92.956320	 51.321720	 39.153140	 1.458087	 27.197130	-0.260395	 20.904370	-22.898530	-21.344520	-3.138907	-6.580301	 5.266122	 0.000000	 0.000000	 0.000000	 0.000000	 0.000000	 0.000000	 0.000000	 3.918556	-0.111969	-0.794973	 4.621191	 0.989130	 0.378087	 114.204100	-4.306780	-88.410110	-13.146310	 34.411630	-41.346640	-87.480370	-1.417182	-22.807580	 5.638317	-28.247960	 1.531339	-0.704003	 20.080820	 0.835890	 12.273410	 18.608390	-4.150506	-8.443534	 8.142982	-0.212878
 0.022292	 1.295975	 0.010217	-0.333748	 3.371136	 178.440200	-174.815200	 4.198445	-29.531680	 3.304606	-16.276860	 4.094136	-3.084038	 63.096180	 3.582247	 1.331492	 28.938720	-2.729976	 175.655400	 6.440931	 32.488420	-6.044498	-19.156980	-10.007570	-6.617268	 66.400470	 6.770137	-1.294454	 28.450610	 2.947626	 0.128922	 4.470488	-13.223220	-1.365271	 3.615705	-0.323544	-1.265167	-0.308999	-0.879975	-113.447400	 5.039233	 92.967960	 46.749520	 41.543560	 5.438513	 28.334010	-0.256416	 22.036960	-20.544730	-25.071340	-2.623328	-6.580301	 5.266122	 0.000000	 0.000000	 0.000000	 0.000000	 0.000000	 0.000000	 0.000000	 3.737952	-0.090551	-0.824505	 4.506247	 1.064916	 0.338434	 114.198500	-4.267973	-88.435950	-10.857300	 32.207920	-43.859310	-86.705350	-1.373047	-23.887950	 13.946740	-30.274400	 4.437881	-0.659557	 18.905780	 0.821059	 12.217150	 17.459630	-3.888303	-8.435450	 7.585639	-0.177686
 0.022370	 1.296008	 0.010649	-0.323200	 3.422549	 178.285200	-174.795100	 4.123871	-29.661040	 3.299897	-16.254900	 3.977460	-3.324317	 63.063030	 3.839127	 1.331492	 28.938720	-2.729976	 175.685200	 6.422160	 32.321890	-6.041820	-19.149170	-9.994925	-6.610672	 66.358890	 6.735907	-1.295823	 28.467870	 2.938409	 0.534768	 4.436758	-18.303380	-1.345242	 3.680909	-0.343596	-1.232702	-0.368516	-0.867938	-113.447700	 5.016319	 92.962740	 45.580090	 42.232540	 6.492595	 29.295470	-0.255213	 22.953410	-20.283720	-27.009700	-1.725041	-6.580301	 5.266122	 0.000000	 0.000000	 0.000000	 0.000000	 0.000000	 0.000000	 0.000000	 3.663105	-0.139151	-0.821479	 4.397243	 1.045149	 0.372318	 114.196300	-4.253471	-88.447570	-10.129710	 32.210370	-44.620350	-85.757290	-1.336465	-24.748070	 16.744260	-31.803340	 5.058986	-0.630455	 18.127370	 0.811817	 12.183080	 16.698480	-3.716150	-8.429288	 7.175463	-0.151760
 0.022414	 1.296088	 0.010866	-0.325786	 3.438720	 178.269100	-174.808300	 4.096087	-29.645540	 3.290967	-16.213280	 3.925056	-3.417660	 63.031620	 3.946428	 1.331492	 28.938720	-2.729976	 175.687600	 6.391608	 32.306480	-6.028968	-19.111510	-9.790938	-6.151368	 66.312180	 6.221842	-1.297321	 28.486660	 2.924181	 0.890619	 4.349986	-22.959950	-1.343145	 3.780746	-0.378131	-1.188480	-0.497561	-0.832858	-113.447900	 4.990420	 92.952700	 45.110810	 42.602920	 6.894506	 30.060150	-0.254744	 23.670720	-20.366960	-28.211460	-0.866676	-6.580301	 5.266122	 0.000000	 0.000000	 0.000000	 0.000000	 0.000000	 0.000000	 0.000000	 3.619291	-0.207529	-0.809170	 4.290810	 0.997850	 0.427073	 114.195000	-4.246078	-88.455010	-9.480998	 32.547240	-44.997270	-85.339320	-1.308671	-25.433220	 18.127290	-32.777930	 5.108230	-0.606042	 17.468990	 0.804354	 12.156230	 16.054640	-3.571437	-8.423657	 6.810854	-0.128693
